HIERARCHY
ROOT Hips
{
    OFFSET 0.000000 0.000000 0.000000
    CHANNELS 6 Xposition Yposition Zposition Zrotation Xrotation Yrotation
    JOINT Spine
    {
        OFFSET -0.000000 7.246840 0.000000
        CHANNELS 3 Zrotation Xrotation Yrotation
        JOINT Spine1
        {
            OFFSET -0.000000 20.289354 0.000000
            CHANNELS 3 Zrotation Xrotation Yrotation
            JOINT Neck
            {
                OFFSET -0.000000 20.206032 1.836912
                CHANNELS 3 Zrotation Xrotation Yrotation
                JOINT Head
                {
                    OFFSET -0.000000 12.372654 -1.767522
                    CHANNELS 3 Zrotation Xrotation Yrotation
                    End Site
                    {
                        OFFSET -0.000000 22.094025 0.000000
                    }
                }
            }
            JOINT LeftShoulder
            {
                OFFSET 3.465871 17.201674 -0.568930
                CHANNELS 3 Zrotation Xrotation Yrotation
                JOINT LeftArm
                {
                    OFFSET 14.070313 0.000000 0.000000
                    CHANNELS 3 Zrotation Xrotation Yrotation
                    JOINT LeftForeArm
                    {
                        OFFSET 26.549477 0.000000 0.000000
                        CHANNELS 3 Zrotation Xrotation Yrotation
                        JOINT LeftHand
                        {
                            OFFSET 18.880413 0.000000 0.000000
                            CHANNELS 3 Zrotation Xrotation Yrotation
                            End Site
                            {
                                OFFSET 13.256415 0.000000 0.000000
                            }
                        }
                    }
                }
            }
            JOINT RightShoulder
            {
                OFFSET -3.526370 17.201674 -0.568930
                CHANNELS 3 Zrotation Xrotation Yrotation
                JOINT RightArm
                {
                    OFFSET -14.070313 0.000000 0.000000
                    CHANNELS 3 Zrotation Xrotation Yrotation
                    JOINT RightForeArm
                    {
                        OFFSET -26.549477 0.000000 0.000000
                        CHANNELS 3 Zrotation Xrotation Yrotation
                        JOINT RightHand
                        {
                            OFFSET -18.880413 0.000000 0.000000
                            CHANNELS 3 Zrotation Xrotation Yrotation
                            End Site
                            {
                                OFFSET -13.256415 0.000000 0.000000
                            }
                        }
                    }
                }
            }
        }
    }
    JOINT LeftUpLeg
    {
        OFFSET 8.837609 0.000000 0.000000
        CHANNELS 3 Zrotation Xrotation Yrotation
        JOINT LeftLeg
        {
            OFFSET -0.000000 -41.345005 0.000000
            CHANNELS 3 Zrotation Xrotation Yrotation
            JOINT LeftFoot
            {
                OFFSET -0.000000 -35.500874 0.000000
                CHANNELS 3 Zrotation Xrotation Yrotation
                JOINT LeftToeBase
                {
                    OFFSET -0.000000 -5.744446 13.256415
                    CHANNELS 3 Zrotation Xrotation Yrotation
                    End Site
                    {
                        OFFSET -0.000000 0.000000 3.535044
                    }
                }
            }
        }
    }
    JOINT RightUpLeg
    {
        OFFSET -8.837609 0.000000 0.000000
        CHANNELS 3 Zrotation Xrotation Yrotation
        JOINT RightLeg
        {
            OFFSET -0.000000 -41.345005 0.000000
            CHANNELS 3 Zrotation Xrotation Yrotation
            JOINT RightFoot
            {
                OFFSET -0.000000 -35.500874 0.000000
                CHANNELS 3 Zrotation Xrotation Yrotation
                JOINT RightToeBase
                {
                    OFFSET -0.000000 -5.744446 13.256415
                    CHANNELS 3 Zrotation Xrotation Yrotation
                    End Site
                    {
                        OFFSET -0.000000 0.000000 3.535044
                    }
                }
            }
        }
    }
}
MOTION
Frames:    14
Frame Time:    0.010000
3.472227    82.252518    -68.848038    3.926951    2.998119    -0.470916    -5.105953    -14.608829    -1.004623    0.951567    4.923970    -0.390668    0.076119    32.590363    -2.320747    3.787481    -16.516731    -1.332594    19.401207    1.324798    7.517370    -30.612083    8.130644    -9.910291    7.125829    -13.439953    -13.323621    -33.426846    -11.338848    -4.386901    -16.942970    2.075299    10.987846    19.025381    5.898666    7.814699    -3.416869    -5.212903    4.826905    6.212808    -4.525366    10.034392    -3.213285    4.901736    -2.647574    -2.374191    -8.434517    -5.066697    6.021353    1.271971    -2.903111    -0.345673    0.142841    0.483505    -9.045298    3.710833    3.866210    8.154656    -9.807376    4.097692    -2.860023    0.766560    -9.768275    0.608093    -0.616573    -1.097804    
3.471554    82.253937    -68.855644    3.924166    3.002023    -0.476637    -5.116541    -14.599387    -1.006393    0.968410    4.915855    -0.392329    0.056695    32.572327    -2.307398    3.817880    -16.509552    -1.313548    19.374491    1.345029    7.518975    -30.589794    8.111858    -9.929757    7.192221    -13.715773    -13.472210    -34.526783    -11.762739    -3.704860    -16.953299    2.079400    10.994352    19.013210    5.912298    7.811563    -3.413735    -5.244024    4.833024    6.199943    -4.558268    10.022356    -3.209623    4.890233    -2.628150    -2.387899    -8.423149    -5.054345    6.037419    1.268719    -2.886339    -0.299413    0.131051    0.418829    -9.041069    3.694721    3.859294    8.148470    -9.795280    4.117734    -2.735396    0.723341    -9.764721    0.685821    -0.575178    -1.237562    
3.470245    82.255569    -68.861511    3.922742    3.003108    -0.479507    -5.113473    -14.590187    -1.004745    0.953935    4.907094    -0.390615    0.065064    32.575390    -2.309619    3.834754    -16.525366    -1.309220    19.370060    1.345361    7.506940    -30.574377    8.111080    -9.929776    7.191869    -13.676199    -13.458985    -34.478313    -11.717266    -3.731643    -16.948721    2.089550    11.000222    19.013008    5.890106    7.806121    -3.424832    -5.264111    4.840364    6.224221    -4.574924    10.034040    -3.211231    4.882666    -2.631417    -2.388638    -8.415106    -5.005022    6.041554    1.266318    -2.918859    -0.317761    0.155994    0.444428    -9.037210    3.687352    3.855059    8.151261    -9.790805    4.104731    -2.500389    0.628267    -9.822894    0.667262    -0.577957    -1.204110    
3.469390    82.257439    -68.867661    3.919299    3.005776    -0.486285    -5.118732    -14.578078    -1.003608    0.961538    4.888876    -0.389599    0.055733    32.591778    -2.315618    3.856582    -16.548681    -1.310032    19.363741    1.367170    7.498569    -30.577131    8.130052    -9.934323    7.202427    -13.658118    -13.465129    -34.421062    -11.697364    -3.738421    -16.957649    2.096119    11.002251    19.015928    5.889066    7.800447    -3.430375    -5.292673    4.869609    6.229866    -4.603066    10.013167    -3.209313    4.884104    -2.636104    -2.389777    -8.430966    -4.927250    6.053193    1.275493    -2.959768    -0.290592    0.164470    0.406409    -9.035693    3.676929    3.867743    8.153829    -9.787123    4.109418    -2.703885    0.720047    -9.761114    0.695897    -0.586021    -1.255892    
3.466951    82.259125    -68.872932    3.916312    3.008466    -0.489573    -5.120761    -14.573131    -1.003504    0.957697    4.882969    -0.389249    0.078844    32.599976    -2.324635    3.840809    -16.573040    -1.319339    19.356304    1.340793    7.491724    -30.566130    8.163112    -9.926695    7.203061    -13.648477    -13.456003    -34.333000    -11.686584    -3.753804    -16.958715    2.112478    10.999578    19.020363    5.839251    7.810349    -3.432258    -5.293362    4.877438    6.200343    -4.606099    10.012132    -3.199822    4.875757    -2.623301    -2.388058    -8.432153    -5.040563    6.036794    1.301044    -2.899661    -0.314104    0.114248    0.439422    -9.028469    3.666547    3.861910    8.151414    -9.781234    4.106150    -2.832167    0.768219    -9.742753    0.629321    -0.613048    -1.136083    
3.465199    82.260857    -68.879631    3.913624    3.017695    -0.490479    -5.145797    -14.574853    -1.010700    0.988815    4.878800    -0.394534    0.048010    32.605389    -2.322070    3.898134    -16.590599    -1.304872    19.349998    1.338530    7.485935    -30.587811    8.156397    -9.924404    7.219672    -13.620261    -13.452657    -34.311989    -11.652370    -3.769617    -16.965714    2.119250    11.003889    19.014246    5.812466    7.806605    -3.398227    -5.175631    4.857250    6.182106    -4.487327    10.096146    -3.196173    4.861207    -2.645954    -2.400532    -8.418682    -4.941940    6.064815    1.284243    -2.928836    -0.299140    0.169176    0.418351    -9.026340    3.652849    3.880029    8.150855    -9.783171    4.100665    -2.811620    0.762465    -9.768473    0.657137    -0.612119    -1.186283    
3.464419    82.261322    -68.883835    3.913967    3.017914    -0.492749    -5.134218    -14.562665    -1.006573    0.951813    4.859133    -0.390726    0.069885    32.592480    -2.325773    3.909268    -16.563299    -1.302944    19.364481    1.333478    7.469493    -30.579250    8.169134    -9.910760    7.209026    -13.618735    -13.469948    -34.270157    -11.653788    -3.765211    -16.944159    2.126959    10.995317    19.009470    5.817723    7.818793    -3.445955    -5.302736    4.884549    6.178855    -4.614954    10.041894    -3.200879    4.860677    -2.633807    -2.364567    -8.440859    -5.056778    6.007705    1.317734    -2.901017    -0.335519    0.112271    0.469386    -9.023689    3.648472    3.853383    8.146989    -9.785594    4.125674    -2.864132    0.791673    -9.746473    0.651488    -0.607005    -1.176019    
3.462825    82.262161    -68.889374    3.912059    3.024658    -0.499881    -5.155248    -14.563841    -1.012380    0.985244    4.852551    -0.395006    0.076789    32.596066    -2.333759    3.881956    -16.574343    -1.317480    19.340422    1.325949    7.464155    -30.583532    8.157491    -9.903714    7.207716    -13.619048    -13.472110    -34.261105    -11.651370    -3.775330    -16.967323    2.126774    11.007456    19.017801    5.803287    7.819960    -3.454000    -5.291364    4.888459    6.161852    -4.606301    10.010470    -3.199557    4.855849    -2.619710    -2.379327    -8.439692    -4.982918    6.031159    1.306689    -2.919332    -0.290487    0.148047    0.406301    -9.022045    3.636071    3.866938    8.150754    -9.782698    4.120104    -2.786039    0.769145    -9.771856    0.656938    -0.620767    -1.186036    
3.461541    82.262329    -68.893753    3.910836    3.026435    -0.500953    -5.161992    -14.558017    -1.015462    0.976238    4.840820    -0.397009    0.079589    32.602303    -2.340457    3.915939    -16.579615    -1.314191    19.365906    1.294178    7.468323    -30.605968    8.190264    -9.901052    7.248392    -13.626652    -13.477626    -34.615303    -11.582115    -3.969410    -16.942982    2.120190    11.014153    18.991390    5.870446    7.813858    -3.459436    -5.311630    4.893758    6.138351    -4.628818    9.999657    -3.196511    4.859933    -2.621909    -2.365330    -8.469494    -5.047590    5.999332    1.345619    -2.907821    -0.321788    0.097259    0.450218    -9.017370    3.633699    3.869703    8.149399    -9.786830    4.097037    -2.531459    0.659862    -9.826520    0.627791    -0.583175    -1.132951    
3.459749    82.262657    -68.898621    3.908808    3.032584    -0.505422    -5.166767    -14.555739    -1.017481    0.974639    4.827010    -0.398445    0.074348    32.609615    -2.347438    3.941079    -16.586697    -1.314990    19.351059    1.321870    7.472446    -30.590006    8.153499    -9.929187    7.237178    -13.637890    -13.483288    -34.668316    -11.598358    -3.950069    -16.942396    2.106428    11.026577    19.003977    5.891006    7.800790    -3.478321    -5.297665    4.897788    6.135699    -4.614853    9.986798    -3.196530    4.849498    -2.621617    -2.363641    -8.460330    -5.027035    6.006552    1.331052    -2.903208    -0.315823    0.139568    0.441761    -9.012246    3.624028    3.868314    8.142015    -9.789989    4.121371    -2.789970    0.779320    -9.758113    0.662558    -0.613274    -1.196083    
3.458230    82.261711    -68.903343    3.906936    3.038890    -0.509411    -5.161322    -14.552293    -1.015394    0.953729    4.807261    -0.396153    0.099665    32.633587    -2.367068    3.947192    -16.614326    -1.328587    19.363012    1.310225    7.462752    -30.590611    8.196261    -9.918083    7.241144    -13.651652    -13.492846    -34.678242    -11.613869    -3.940074    -16.931293    2.111060    11.039208    19.000134    5.924039    7.784781    -3.480303    -5.300910    4.911299    6.140664    -4.617195    9.985982    -3.189567    4.844288    -2.654385    -2.363730    -8.475833    -4.984107    5.987326    1.337888    -2.918556    -0.319535    0.125096    0.446992    -9.007729    3.615456    3.868611    8.143601    -9.792526    4.090469    -2.771717    0.778155    -9.718204    0.661161    -0.608460    -1.193498    
3.457950    82.261742    -68.906258    3.909424    3.035362    -0.513929    -5.178407    -14.548981    -1.018522    0.967982    4.805163    -0.397735    0.079977    32.634739    -2.374440    3.986009    -16.610495    -1.328604    19.350931    1.304007    7.468272    -30.595425    8.177765    -9.935583    7.244188    -13.630791    -13.484266    -34.720089    -11.600243    -3.911414    -16.926594    2.116819    11.045591    18.982193    5.920150    7.784275    -3.469248    -5.280774    4.918111    6.154150    -4.596156    9.985564    -3.197448    4.848646    -2.620075    -2.366666    -8.475118    -4.985725    6.004955    1.343109    -2.914844    -0.303244    0.116163    0.424225    -9.015137    3.618712    3.878288    8.151243    -9.799203    4.114881    -2.861078    0.805756    -9.755348    0.627746    -0.627454    -1.133417    
3.456149    82.261864    -68.910912    3.906064    3.037899    -0.517211    -5.187976    -14.546350    -1.019897    0.981047    4.796801    -0.398488    0.075937    32.630619    -2.382478    3.999684    -16.602932    -1.334046    19.339563    1.314350    7.458984    -30.603580    8.162079    -9.934422    7.200330    -13.456430    -13.373273    -34.156906    -11.230527    -4.662857    -16.933039    2.124023    11.051077    18.982779    5.939705    7.779586    -3.521940    -5.240130    4.989682    6.322932    -4.540297    9.912976    -3.186731    4.842457    -2.627672    -2.374584    -8.473425    -5.001537    6.010069    1.337989    -2.895918    -0.292232    0.142690    0.408756    -9.010484    3.613820    3.866725    8.154343    -9.802132    4.107669    -2.779480    0.786525    -9.740798    0.659151    -0.599004    -1.189748    
3.454767    82.261185    -68.913872    3.907234    3.037838    -0.520211    -5.195472    -14.545370    -1.021632    0.975219    4.792864    -0.399039    0.075063    32.634480    -2.397295    4.027398    -16.604065    -1.341684    19.349840    1.272400    7.456653    -30.628153    8.197523    -9.904166    7.216836    -13.445764    -13.396629    -34.158524    -11.219603    -4.652053    -16.922354    2.128299    11.049552    18.979267    5.946421    7.783704    -3.523784    -5.244087    5.004930    6.348726    -4.541988    9.903724    -3.187631    4.846936    -2.646827    -2.358382    -8.492621    -5.027434    5.987110    1.351085    -2.879729    -0.318644    0.146127    0.445690    -9.012215    3.612361    3.882853    8.151853    -9.807172    4.117623    -2.869826    0.822683    -9.749268    0.644508    -0.635484    -1.163781    
